HIERARCHY
ROOT Hips
{
	OFFSET 0.00 0.00 0.00
	CHANNELS 6 Xposition Yposition Zposition Xrotation Yrotation Zrotation
	JOINT LeftUpLeg
	{
		OFFSET 3.03384 0.00000 0.00000
		CHANNELS 3 Xrotation Yrotation Zrotation
		JOINT LeftLeg
		{
			OFFSET 0.00000 -16.85134 0.00000
			CHANNELS 3 Xrotation Yrotation Zrotation
			JOINT LeftFoot
			{
				OFFSET 0.00000 -15.49363 0.00000
				CHANNELS 3 Xrotation Yrotation Zrotation
				JOINT LeftToeBase
				{
					OFFSET 0.00000 -1.58004 5.89681
					CHANNELS 3 Xrotation Yrotation Zrotation
					End Site
					{
						OFFSET 0.00000 0.00000 2.95275
					}
				}
			}
		}
	}
	JOINT RightUpLeg
	{
		OFFSET -3.03384 0.00000 0.00000
		CHANNELS 3 Xrotation Yrotation Zrotation
		JOINT RightLeg
		{
			OFFSET 0.00000 -16.85134 0.00000
			CHANNELS 3 Xrotation Yrotation Zrotation
			JOINT RightFoot
			{
				OFFSET 0.00000 -15.49363 0.00000
				CHANNELS 3 Xrotation Yrotation Zrotation
				JOINT RightToeBase
				{
					OFFSET 0.00000 -1.58004 5.89681
					CHANNELS 3 Xrotation Yrotation Zrotation
					End Site
					{
						OFFSET 0.00000 0.00000 2.95275
					}
				}
			}
		}
	}
	JOINT Spine
	{
		OFFSET 0.00000 0.03937 0.00000
		CHANNELS 3 Xrotation Yrotation Zrotation
		JOINT Spine1
		{
			OFFSET 0.00000 8.04447 0.00000
			CHANNELS 3 Xrotation Yrotation Zrotation
			JOINT Neck
			{
				OFFSET 0.00000 6.91684 0.00000
				CHANNELS 3 Xrotation Yrotation Zrotation
				JOINT Head
				{
					OFFSET 0.00000 7.98743 0.00000
					CHANNELS 3 Xrotation Yrotation Zrotation
					End Site
					{
						OFFSET 0.00000 4.52755 0.00000
					}
				}
			}
			JOINT LeftShoulder
			{
				OFFSET 0.00000 6.91684 0.00000
				CHANNELS 3 Xrotation Yrotation Zrotation
				JOINT LeftArm
				{
					OFFSET 7.17853 -0.00003 0.00000
					CHANNELS 3 Xrotation Yrotation Zrotation
					JOINT LeftForeArm
					{
						OFFSET 10.68588 -0.00004 0.00000
						CHANNELS 3 Xrotation Yrotation Zrotation
						JOINT LeftHand
						{
							OFFSET 10.29742 -0.00004 0.00000
							CHANNELS 3 Xrotation Yrotation Zrotation
							JOINT LeftHandThumb
							{
								OFFSET 0.00000 0.00000 0.00000
								CHANNELS 0
								End Site
								{
									OFFSET 0.00000 0.00000 3.93700
								}
							}
							End Site
							{
								OFFSET 3.93700 -0.00001 0.00000
							}
						}
					}
				}
			}
			JOINT RightShoulder
			{
				OFFSET 0.00000 6.91684 0.00000
				CHANNELS 3 Xrotation Yrotation Zrotation
				JOINT RightArm
				{
					OFFSET -7.17853 -0.00003 0.00000
					CHANNELS 3 Xrotation Yrotation Zrotation
					JOINT RightForeArm
					{
						OFFSET -10.68588 -0.00004 0.00000
						CHANNELS 3 Xrotation Yrotation Zrotation
						JOINT RightHand
						{
							OFFSET -10.29742 -0.00004 0.00000
							CHANNELS 3 Xrotation Yrotation Zrotation
							JOINT RightHandThumb
							{
								OFFSET 0.00000 0.00000 0.00000
								CHANNELS 0
								End Site
								{
									OFFSET 0.00000 0.00000 3.93700
								}
							}
							End Site
							{
								OFFSET -5.39369 -0.00002 0.00000
							}
						}
					}
				}
			}
		}
	}
}
MOTION
Frames: 13
Frame Time: 0.008333
 -134.7672 33.7583 -13.7990 -0.5292 -44.3033 -3.7000 -14.9713 -16.1307 -8.6440 32.5954 0.0000 0.0000 -8.0977 -1.2377 2.8994 -7.3541 0.0000 -0.0000 -23.8882 2.7071 -13.2190 54.9177 -0.0000 0.0000 -6.8802 -11.9446 27.2646 9.0511 0.0000 0.0000 -6.2191 -0.7681 -0.9490 9.0085 -2.3367 -2.8268 17.4693 20.6432 -3.1815 3.2893 -6.9507 -8.7591 13.9131 5.5290 24.5536 -6.3124 -19.2388 -83.2385 -179.9992 -74.3373 -179.9990 -6.8760 35.1386 11.1090 31.1589 -11.1058 -17.4850 0.4391 20.7706 85.5787 -0.0005 65.1101 0.0003 -17.5806 0.0146 6.8278
 -135.1508 33.9537 -13.6890 -0.3107 -42.4949 -3.2787 -13.9992 -17.6444 -8.7871 31.2629 -0.0000 0.0000 -7.0583 -1.0650 2.6263 -7.6430 0.0000 0.0000 -23.5948 2.4672 -14.4568 49.7969 0.0000 -0.0000 -4.2313 -10.2177 26.9532 9.0870 0.0000 -0.0000 -6.1936 -1.1594 -1.2591 9.0651 -2.5659 -2.7435 17.4437 20.3678 -2.9519 3.2651 -6.8493 -8.9177 13.6845 4.8285 25.1559 -7.6416 -19.3801 -84.1017 -179.9994 -71.8343 -179.9991 -8.8592 34.8970 10.8935 31.4330 -11.6028 -17.5822 1.1152 20.9633 85.6238 -0.0005 65.1361 0.0003 -17.3587 -0.4492 7.6649
 -135.5377 34.1321 -13.5918 -0.0699 -40.8142 -2.9505 -13.0690 -18.9650 -8.7370 30.0604 0.0000 0.0000 -6.1942 -0.8686 2.2387 -7.8718 0.0000 -0.0000 -23.2874 2.2825 -15.5295 44.6706 0.0000 -0.0000 -1.4383 -7.4389 23.6927 8.8071 -0.0000 -0.0000 -6.1897 -1.4766 -1.4831 9.1097 -2.7966 -2.6929 17.3035 20.1573 -2.7030 3.4368 -6.6743 -8.9281 13.4777 4.1703 25.8351 -8.9056 -19.4684 -84.8438 -179.9994 -69.5332 -179.9992 -10.8886 34.8496 10.7722 31.7227 -12.0248 -17.6592 1.7099 21.0706 85.6782 -0.0005 65.1839 0.0003 -17.3653 -1.1694 8.9163
 -135.9439 34.2984 -13.5230 0.1877 -39.2331 -2.9176 -12.0969 -20.0180 -8.2383 29.0635 -0.0000 0.0000 -5.5536 -0.7073 1.8855 -8.0979 0.0000 0.0000 -22.8283 2.3009 -16.0683 39.4507 0.0000 -0.0000 1.6117 -4.5342 18.3731 8.3987 -0.0000 0.0000 -6.2274 -1.7857 -1.6198 9.2188 -2.9541 -2.4427 17.2730 19.8904 -2.4096 3.2817 -6.5558 -9.0981 13.3001 3.5366 26.4332 -10.1917 -19.4679 -85.4264 -179.9995 -67.4520 -179.9992 -12.7113 34.5176 10.4445 31.9477 -12.3429 -17.7675 2.2695 21.1028 85.8126 -0.0005 65.2358 0.0003 -17.6815 -1.9109 9.9019
 -136.3893 34.4540 -13.4807 0.4452 -37.7032 -3.2992 -10.9928 -20.7231 -7.1519 28.3227 0.0000 -0.0000 -5.2198 -0.6200 1.6828 -8.1865 0.0000 0.0000 -21.7817 2.9404 -15.8805 33.8271 -0.0000 -0.0000 4.5914 -2.5365 13.5461 7.9065 0.0000 -0.0000 -6.3353 -2.0547 -1.5804 9.4083 -3.0933 -2.0550 17.2158 19.6090 -2.0693 3.1809 -6.3944 -9.1974 13.1880 2.9455 27.0464 -11.4969 -19.4029 -85.7852 -179.9995 -65.5606 -179.9993 -14.0736 34.6181 9.9314 32.1880 -12.5809 -17.8114 2.7626 21.0481 85.9861 -0.0005 65.2820 0.0003 -18.0600 -2.7780 11.2192
 -136.8573 34.5813 -13.4397 0.6433 -36.1653 -3.6671 -9.8899 -21.0972 -6.0608 27.8124 0.0000 -0.0000 -5.0966 -0.5846 1.5975 -8.3724 0.0000 -0.0000 -20.4477 4.3101 -15.6511 28.6411 -0.0000 0.0000 6.9255 -1.5695 10.9275 7.8513 0.0000 -0.0000 -6.4017 -2.2453 -1.6510 9.5582 -3.1584 -1.6877 17.0911 19.1803 -1.5617 3.1218 -6.1886 -9.3115 13.0567 2.3165 27.7721 -12.7538 -19.3756 -86.0530 -179.9996 -63.8313 -179.9993 -15.4312 34.6584 9.9495 32.4490 -12.9087 -17.7175 3.2851 21.0030 86.1088 -0.0005 65.3836 0.0003 -18.5188 -3.7232 12.7858
 -137.3253 34.6816 -13.3949 0.8308 -34.6738 -3.9559 -8.9159 -21.0609 -5.0557 27.5641 0.0000 -0.0000 -5.1373 -0.5547 1.5123 -8.5571 0.0000 0.0000 -19.1299 5.9993 -15.5467 23.9001 -0.0000 0.0000 8.9335 -0.9927 9.2585 7.5642 0.0000 0.0000 -6.4455 -2.4711 -1.8050 9.6555 -3.2435 -1.2720 16.9477 18.8078 -1.2252 3.2177 -5.9308 -9.2490 12.9101 1.8374 28.3593 -14.0075 -19.3739 -86.1606 -179.9996 -62.3360 -179.9993 -16.7540 34.2776 10.0450 32.6882 -13.1722 -17.7781 3.7521 20.9903 86.2577 -0.0005 65.5268 0.0003 -19.0797 -4.6318 14.1285
 -137.8056 34.7612 -13.3279 0.9332 -33.0710 -4.2814 -7.9112 -20.7005 -4.0622 27.5112 -0.0000 0.0000 -5.2062 -0.5023 1.3646 -8.7677 0.0000 -0.0000 -17.5256 7.7799 -15.6471 19.4961 0.0000 0.0000 10.2325 -0.7518 8.9408 7.4137 -0.0000 -0.0000 -6.8992 -2.9197 -2.1538 10.2994 -3.4908 -0.4977 17.1410 18.8711 -1.2998 2.9442 -5.8816 -9.1801 12.8421 1.4517 28.6415 -15.2419 -19.0782 -86.0546 -179.9996 -61.0443 -179.9994 -17.8984 33.7354 10.4193 32.8037 -13.0875 -18.4160 4.1071 20.8396 86.6104 -0.0005 65.6884 0.0003 -19.6629 -5.4156 15.3569
 -138.2558 34.7924 -13.2612 1.1960 -31.4628 -4.2740 -7.3766 -20.1464 -3.4375 27.7858 0.0000 -0.0000 -5.5150 -0.3639 0.9723 -9.0229 -0.0000 0.0000 -16.3411 9.2305 -16.1655 15.8737 0.0000 0.0000 11.3837 -0.5805 9.1081 7.6771 0.0000 -0.0000 -6.9383 -3.1395 -2.1914 10.1541 -3.7004 -0.5789 16.9762 18.5851 -0.9558 3.0570 -5.7649 -8.9043 12.7455 1.1158 29.1992 -16.4624 -19.1012 -85.7892 -179.9996 -59.9479 -179.9994 -18.9856 33.3940 10.8294 33.0842 -13.3473 -18.5023 4.5366 20.9342 86.8157 -0.0005 65.8980 0.0003 -20.0857 -6.1348 16.7047
 -138.7155 34.8045 -13.1798 1.3683 -29.8022 -4.3532 -6.8018 -19.3985 -2.7763 28.1862 0.0000 0.0000 -5.9688 -0.2263 0.5903 -9.2181 0.0000 0.0000 -15.0985 10.2824 -16.7962 12.5796 -0.0000 -0.0000 12.6450 -0.4188 10.0769 7.7444 0.0000 0.0000 -7.0540 -3.4030 -2.2621 10.2022 -3.9096 -0.5087 16.9455 18.3737 -0.7148 2.9132 -5.7664 -8.7821 12.6029 0.8040 29.5029 -17.6381 -19.2796 -85.3043 -179.9996 -59.0848 -179.9994 -20.0796 32.5889 12.1045 33.2103 -13.5577 -18.6478 5.0886 20.8998 87.0399 -0.0005 66.2340 0.0003 -20.4056 -6.6466 17.5390
 -139.1726 34.7906 -13.0921 1.5088 -28.1262 -4.4724 -6.3231 -18.3202 -2.0823 28.8175 0.0000 -0.0000 -6.5880 -0.1263 0.3192 -9.3339 -0.0000 0.0000 -14.0386 10.7798 -17.4768 9.7600 0.0000 0.0000 14.2851 -0.1441 11.3968 7.6835 -0.0000 0.0000 -7.0993 -3.6565 -2.2630 10.1664 -4.1127 -0.4765 16.8762 18.2184 -0.5330 3.0492 -5.7270 -8.5386 12.4482 0.5189 29.6604 -18.7567 -19.4939 -84.6859 -179.9997 -58.4038 -179.9994 -21.0566 31.8722 13.2318 33.4252 -13.7994 -18.6960 5.5459 20.9880 87.0556 -0.0005 66.5668 0.0003 -20.6986 -6.9959 18.4255
 -139.6270 34.7485 -12.9978 1.6490 -26.4824 -4.5768 -5.9613 -17.0796 -1.4198 29.6327 0.0000 0.0000 -7.3827 -0.0271 0.0659 -9.4228 -0.0000 -0.0000 -13.3225 10.5094 -18.1564 7.4845 -0.0000 0.0000 15.9720 0.2246 13.0086 7.8683 0.0000 -0.0000 -7.1418 -3.8764 -2.2235 10.0903 -4.2885 -0.5157 16.8231 18.0351 -0.3220 3.1293 -5.7003 -8.3696 12.2972 0.2663 29.7145 -19.8244 -19.7761 -83.9750 -179.9997 -57.9383 -179.9994 -21.8407 31.1815 14.2862 33.7102 -14.0711 -18.6391 5.9324 21.1927 86.9528 -0.0005 67.0282 0.0003 -21.0299 -7.3427 18.5076
 -140.0777 34.6857 -12.9013 1.7895 -24.8801 -4.7599 -5.6912 -15.7361 -0.6744 30.5837 -0.0000 0.0000 -8.3513 0.1034 -0.2395 -9.4718 0.0000 0.0000 -12.9501 9.6713 -18.6662 5.7501 0.0000 0.0000 17.6009 0.6446 13.9104 7.9218 -0.0000 -0.0000 -7.1570 -4.0568 -2.0796 9.9832 -4.4313 -0.5862 16.7874 17.8073 -0.0728 3.1064 -5.6883 -8.2926 12.1791 0.0438 29.6551 -20.8906 -20.1155 -83.2247 -179.9997 -57.7240 -179.9994 -21.9058 30.7438 15.0193 33.8748 -14.2844 -18.5161 6.4352 21.2847 86.7506 -0.0005 67.4604 0.0003 -21.1608 -7.5334 19.0030
